<?xml version="1.0" encoding="utf-8"?>
<!-- Generator: Adobe Illustrator 25.2.0, SVG Export Plug-In . SVG Version: 6.00 Build 0)  -->
<svg version="1.1" id="레이어_1" focusable="false"
	 xmlns="http://www.w3.org/2000/svg" xmlns:xlink="http://www.w3.org/1999/xlink" x="0px" y="0px" viewBox="0 0 512 512"
	 style="enable-background:new 0 0 512 512;" xml:space="preserve">
<style type="text/css">
	.st0{opacity:0;}
	.st1{opacity:0;fill:url(#SVGID_1_);}
	.st2{fill:url(#SVGID_2_);}
</style>
<rect x="96" y="90.8" class="st0" width="320" height="320"/>
<linearGradient id="SVGID_1_" gradientUnits="userSpaceOnUse" x1="44.6224" y1="158.8806" x2="509.998" y2="372.7018">
	<stop  offset="0" style="stop-color:#FFFFFF"/>
	<stop  offset="1" style="stop-color:#6B6B6B"/>
</linearGradient>
<path class="st1" d="M0,256C0,114.6,114.6,0,256,0s256,114.6,256,256S397.4,512,256,512S0,397.4,0,256z M301.4,375.7V256h73.2
	c11,0,16.6-13.4,8.8-21.2l-118.6-118c-4.9-4.9-12.6-4.9-17.4,0l-118.7,118c-7.8,7.8-2.3,21.2,8.8,21.2h73.2v119.7
	c0,6.8,5.6,12.4,12.4,12.4H289C295.8,388.1,301.4,382.6,301.4,375.7z"/>
<linearGradient id="SVGID_2_" gradientUnits="userSpaceOnUse" x1="259.2147" y1="213.3427" x2="286.2253" y2="-40.1131">
	<stop  offset="0" style="stop-color:#F3DF4D"/>
	<stop  offset="1" style="stop-color:#6B6B6B"/>
</linearGradient>
<path class="st2" d="M301.4,375.7V256h73.2c11,0,16.6-13.4,8.8-21.2l-118.6-118c-4.9-4.9-12.6-4.9-17.4,0l-118.7,118
	c-7.8,7.8-2.3,21.2,8.8,21.2h73.2v119.7c0,6.8,5.6,12.4,12.4,12.4H289C295.8,388.1,301.4,382.6,301.4,375.7z"/>
</svg>
