<?xml version="1.0" encoding="utf-8"?>
<!-- Generator: Adobe Illustrator 25.2.0, SVG Export Plug-In . SVG Version: 6.00 Build 0)  -->
<svg version="1.1" id="레이어_1" focusable="false"
	 xmlns="http://www.w3.org/2000/svg" xmlns:xlink="http://www.w3.org/1999/xlink" x="0px" y="0px" viewBox="0 0 512 512"
	 style="enable-background:new 0 0 512 512;" xml:space="preserve">
<path d="M185.39,185.39c6.32-6.32,13.19-12.08,20.52-17.2c6.4-4.47,15.06-3.79,20.58,1.73l21.05,21.05
	c8.35,8.35,12.09,19.24,11.7,29.81c-0.19,5.06-2.77,9.74-6.95,12.61c-2.91,2.01-6.64,4.88-10.34,8.57
	c-28.07,28.07-28.19,73.64,0,101.83l67.2,67.19c28.24,28.24,74.3,28.07,102.32-0.51c27.75-28.3,26.87-73.93-1.15-101.96
	l-13.09-13.09c-4.35-4.35-5.77-10.79-3.78-16.61c5.86-17.19,9.04-35,9.69-52.72c0.51-13.91,17.45-20.45,27.29-10.61l37.11,37.11
	c59.27,59.26,59.27,155.7,0,214.96c-59.26,59.26-155.69,59.27-214.96,0l-67.2-67.2c-0.12-0.12-0.25-0.25-0.36-0.37
	C126.46,341.09,125.64,245.2,185.39,185.39L185.39,185.39z M44.45,44.45c-59.27,59.26-59.27,155.7,0,214.96l37.11,37.11
	c9.84,9.84,26.79,3.3,27.29-10.61c0.65-17.72,3.83-35.53,9.69-52.72c1.99-5.82,0.57-12.26-3.78-16.61l-13.09-13.09
	c-28.03-28.03-28.9-73.66-1.15-101.96c28.02-28.58,74.09-28.75,102.32-0.51l67.2,67.19c28.19,28.19,28.07,73.76,0,101.83
	c-3.7,3.69-7.43,6.56-10.34,8.57c-4.18,2.87-6.75,7.54-6.95,12.61c-0.4,10.57,3.35,21.46,11.7,29.81l21.05,21.05
	c5.52,5.52,14.18,6.2,20.58,1.73c7.33-5.12,14.2-10.87,20.52-17.2c59.75-59.81,58.93-155.7,0.36-214.59
	c-0.11-0.12-0.24-0.25-0.36-0.37l-67.2-67.2C200.14-14.82,103.71-14.81,44.45,44.45L44.45,44.45z"/>
</svg>
